<?xml version="1.0" encoding="UTF-8"?>
<svg xmlns="http://www.w3.org/2000/svg" viewBox="0 0 100 100">
  <defs>
    <style>
      .cls-1, .cls-2 {
        stroke-width: 6px;
      }

      .cls-1, .cls-2, .cls-3, .cls-4, .cls-5, .cls-6, .cls-7, .cls-8, .cls-9, .cls-10 {
        stroke-miterlimit: 10;
      }

      .cls-1, .cls-2, .cls-3, .cls-6, .cls-8, .cls-9 {
        stroke: #333;
      }

      .cls-1, .cls-11, .cls-8 {
        fill: #282827;
      }

      .cls-2 {
        fill: #fff;
      }

      .cls-3 {
        stroke-width: 9px;
      }

      .cls-3, .cls-5, .cls-6 {
        fill: none;
      }

      .cls-4, .cls-7 {
        stroke: #f9a529;
      }

      .cls-4, .cls-7, .cls-10 {
        fill: #f9a529;
      }

      .cls-5 {
        stroke: #5cc5ce;
      }

      .cls-5, .cls-6 {
        stroke-width: 2px;
      }

      .cls-7 {
        stroke-width: 3px;
      }

      .cls-12 {
        fill: #5cc5ce;
      }

      .cls-9, .cls-13 {
        fill: #333;
      }

      .cls-10 {
        stroke: #231f20;
      }
    </style>
  </defs>
  <g id="Layer_6">
    <circle class="cls-10" cx="41.95" cy="41.7" r="32.72"/>
  </g>
  <g id="Layer_7">
    <path class="cls-12" d="M16.86,42.83c3.73.02,7.69.24,10.55-2.62,2.53-2.53,2.52-6.5,2.74-8.55l-1.16,4.29c-1.29,1.13-1.14,1.35.43.67,1.12-.38,2.22-.82,3.29-1.32,2.17-1.13,3.65-2.74,5.08-4.68s4.13-3.81,5.52-6.4c2.91-5.41-.64-13.1-7.34-12.79-6.32.3-11.98,1.82-17.64,4.65-9.04,4.53-2.44,17.35,6.55,15.54,3.81-.77,7.61-1.64,11.43-2.4,2.67-.53,7.71-2.22,10.33-1.03,2.03.92,3.76,3.59,5.28,5.12s4.61,3.25,5.33,4.92l-1.16-4.29.08,1.16,8.5-8.5c-3.77-.36-4.13-1.92-6.52-4.69-2.52-2.92-5.61-5.09-9.41-5.97-10.64-2.48-15.19,13.91-4.52,16.39,2.41.56,4.59,5.1,6.6,6.75,4.05,3.31,8.79,4.03,13.85,4.52,4.37.42,8.78-4.24,8.5-8.5-.39-5.95-3.27-8.59-7.5-12.18-3.53-2.99-6.15-6.86-10.2-9.28-10.22-6.11-24.41-.59-35.11,1.57l6.55,15.54c2.88-1.44,5.84-2.18,9.06-2.33l-7.34-12.79c1.09-.81,1.24-.95.46-.4-.76.51-1.48,1.06-2.18,1.65-.57.5-1.05.96-1.55,1.53-.68.63-1.2,1.37-1.56,2.19-.53.89-.16.76,1.1-.39-1.23.24-2.42.7-3.58,1.16-6.35,2.51-8.84,8-7.9,14.51v-4.52l-.21.57,5.94-5.94c-.69-.38-1.45-.44-2.28-.17-10.94-.06-10.95,16.94,0,17h0Z"/>
  </g>
  <g id="Layer_5">
    <line class="cls-1" x1="6.91" y1="41.7" x2="76.99" y2="41.7"/>
  </g>
  <g id="Layer_9">
    <circle class="cls-5" cx="41.95" cy="41.7" r="40.39"/>
    <circle class="cls-4" cx="88.73" cy="88.99" r="10.39"/>
    <circle class="cls-4" cx="71.98" cy="72.2" r="10.39"/>
    <line class="cls-7" x1="82.45" y1="95.97" x2="65.04" y2="78.53"/>
    <line class="cls-7" x1="95.65" y1="82.63" x2="77.87" y2="64.88"/>
  </g>
  <g id="Layer_3">
    <circle class="cls-6" cx="41.95" cy="41.7" r="30.03"/>
    <circle class="cls-3" cx="41.95" cy="41.7" r="35.04"/>
  </g>
  <g id="Layer_2">
    <circle class="cls-9" cx="88.73" cy="88.99" r="8.39"/>
    <circle class="cls-9" cx="71.95" cy="72.2" r="8.39"/>
    <line class="cls-8" x1="77.77" y1="66.16" x2="94.66" y2="83.05"/>
    <line class="cls-8" x1="83.05" y1="95.15" x2="65.7" y2="77.8"/>
    <g>
      <path class="cls-11" d="M78.24,77.53c1.21,2.14,3.24,3.68,4.84,5.55-2.06-1.27-4-2.73-5.78-4.36,1.26.92,2.46,1.92,3.61,2.99"/>
      <path class="cls-13" d="M76.08,78.79c1.34,2.36,3.48,4.03,5.23,6.06l3.03-3.93c-1.13-.7-2.23-1.45-3.29-2.27l.51.39c-.86-.66-1.69-1.36-2.49-2.1l-3.03,3.93c.26.19.52.39.78.59l-.51-.39c.98.76,1.92,1.56,2.82,2.4.48.45,1.1.73,1.77.73.61,0,1.35-.27,1.77-.73s.76-1.1.73-1.77-.24-1.31-.73-1.77c-1.3-1.21-2.68-2.32-4.11-3.38-.47-.35-1.39-.43-1.93-.25s-.96.46-1.3.9c-.73.94-.73,2.44.2,3.28,1.94,1.77,4.05,3.38,6.28,4.75,1.06.66,2.49.31,3.23-.64.33-.42.56-.97.54-1.51-.03-.69-.28-1.24-.73-1.77-1.28-1.48-2.79-2.74-3.99-4.28l.39.51c-.31-.4-.6-.82-.85-1.27-.31-.54-.89-.98-1.49-1.15s-1.4-.09-1.93.25c-1.15.74-1.59,2.2-.9,3.42h0Z"/>
    </g>
    <g>
      <path class="cls-11" d="M71.3,79.86c2.3,2.62,4.99,4.89,7.35,7.45.28.31.56.62.79.97.16.25.29.51.47.75.37.48.9.8,1.42,1.11.16-1.81-.35-3.67-1.41-5.14-.52-.72-1.16-1.34-1.8-1.96-.95-.92-1.91-1.85-3.09-2.44"/>
      <path class="cls-13" d="M69.53,81.63c1.66,1.88,3.51,3.58,5.29,5.34.43.42.86.85,1.28,1.28.22.23.44.46.65.69.07.08.51.68.6.68-.12,0-.29-.41-.03,0,.08.12.15.25.23.38.23.37.5.73.8,1.05.49.5,1.11.9,1.71,1.26.76.46,1.76.45,2.52,0,.81-.47,1.17-1.26,1.24-2.16.2-2.6-.71-5.1-2.3-7.12-.66-.84-1.45-1.57-2.22-2.31-.91-.86-1.9-1.69-3.01-2.27s-2.77-.34-3.42.9c-.61,1.15-.34,2.78.9,3.42.21.11.42.23.62.35.12.08.46.41.59.41-.1,0-.36-.29-.08-.06.09.08.18.15.27.23.18.16.36.32.53.49.71.67,1.44,1.34,2.06,2.09.04.05.31.36.08.09s.02.04.06.1c.13.19.24.38.35.58.05.1.11.2.16.3.03.07.19.43.05.09s0,.03.03.1c.04.11.07.21.11.32.07.22.12.44.17.66.02.11.04.22.06.33.08.33-.04-.5-.02-.16.03.49.05.96.01,1.44l3.76-2.16c-.17-.1-.5-.41-.7-.44.12.02.36.33.12.08-.03-.03-.38-.42-.14-.12s-.05-.11-.09-.18c-.08-.13-.15-.25-.23-.38-.24-.35-.5-.68-.77-1-.79-.93-1.68-1.79-2.55-2.65-1.74-1.71-3.54-3.37-5.16-5.21-.87-.98-2.66-.95-3.54,0-.96,1.05-.93,2.49,0,3.54h0Z"/>
    </g>
    <g>
      <path class="cls-11" d="M83.91,80.8c-1.07-1.61-1.97-3.33-2.88-5.04-.2-.39-.41-.78-.49-1.21-.1-.57.03-1.16.18-1.72.03-.11.06-.23.01-.34-.05-.11-.17-.18-.28-.24-.24-.15-.45-.37-.58-.63.68.64,1.36,1.29,2.03,1.93.87.82,1.74,1.65,2.48,2.58.42.53.8,1.09,1.32,1.51.38.3.83.51,1.22.79.56.4,1,.94,1.44,1.47.36.44.72.88,1.08,1.32-1.85-.07-3.69-.39-5.46-.95"/>
      <path class="cls-13" d="M86.07,79.54c-1.03-1.57-1.92-3.22-2.79-4.88-.03-.05-.33-.58-.31-.6.14.35.16.39.07.14-.03-.1-.06-.21-.08-.32.04.35.06.43.05.23,0-.09,0-.17.01-.26-.06.37-.06.42,0,.15.02-.11.05-.23.08-.34.22-.89.24-1.73-.26-2.53-.33-.54-.65-.63-1.1-1.04.31.26.36.3.18.12.23.33.28.38.14.15l-3.93,3.03c.89.85,1.8,1.69,2.68,2.55.41.39.81.79,1.19,1.22.2.22.39.45.58.68.23.27-.38-.5-.05-.07.18.23.35.46.53.69.42.53.86.94,1.4,1.35.22.16.44.3.68.44.12.07.23.14.34.21.05.03.09.06.13.09.15.11.09.06-.19-.15,0-.01,1.01,1.06,1.09,1.15.4.48.79.96,1.18,1.44l1.77-4.27c-.48-.02-.95-.05-1.43-.1-.17-.02-.7.01-.05,0-.23,0-.49-.07-.71-.11-.88-.16-1.75-.38-2.61-.64-1.25-.39-2.78.46-3.08,1.75-.31,1.36.41,2.66,1.75,3.08,1.98.62,4.05.95,6.12,1.04.99.04,1.92-.66,2.28-1.54.42-.99.14-1.93-.52-2.73-.72-.88-1.4-1.86-2.27-2.59-.52-.44-1.08-.78-1.65-1.14-.45-.29.07.02.06.06,0-.01-.26-.25-.28-.27-.09-.09-.17-.19-.26-.29-.06-.07-.34-.44-.09-.11s-.06-.08-.09-.12c-.16-.21-.32-.42-.49-.63-.19-.23-.38-.46-.58-.68-.4-.44-.82-.87-1.25-1.28-.89-.86-1.79-1.7-2.68-2.55s-2.29-.96-3.28-.2-1.27,2.14-.64,3.23c.31.53.89,1.27,1.47,1.52-.41-2.33-.72-3.02-.93-2.07-.03.11-.06.23-.08.34-.08.39-.14.79-.17,1.18-.08,1.22.38,2.28.94,3.33.87,1.66,1.76,3.31,2.79,4.88.72,1.09,2.24,1.66,3.42.9,1.09-.7,1.67-2.25.9-3.42h0Z"/>
    </g>
  </g>
  <g id="Layer_4">
    <circle class="cls-2" cx="41.95" cy="41.7" r="11.01"/>
  </g>
</svg>
